<svg width="39" height="39" viewBox="0 0 39 39" fill="none" xmlns="http://www.w3.org/2000/svg">
<path d="M19.5 0C22.0859 0 24.5658 1.02723 26.3943 2.85571C28.2228 4.68419 29.25 7.16414 29.25 9.75C29.25 12.3359 28.2228 14.8158 26.3943 16.6443C24.5658 18.4728 22.0859 19.5 19.5 19.5C16.9141 19.5 14.4342 18.4728 12.6057 16.6443C10.7772 14.8158 9.75 12.3359 9.75 9.75C9.75 7.16414 10.7772 4.68419 12.6057 2.85571C14.4342 1.02723 16.9141 0 19.5 0ZM19.5 24.375C30.2738 24.375 39 28.7381 39 34.125V39H0V34.125C0 28.7381 8.72625 24.375 19.5 24.375Z" fill="#535151"/>
</svg>
