<svg width="25" height="25" viewBox="0 0 25 25" fill="none" xmlns="http://www.w3.org/2000/svg">
<path d="M6.25 1.25H3.75C3.08696 1.25 2.45107 1.51339 1.98223 1.98223C1.51339 2.45107 1.25 3.08696 1.25 3.75V6.25M18.75 1.25H21.25C21.913 1.25 22.5489 1.51339 23.0178 1.98223C23.4866 2.45107 23.75 3.08696 23.75 3.75V6.25M17.5 7.5V10M7.5 7.5V10M8.75 17.5C8.75 17.5 10 18.75 12.5 18.75C15 18.75 16.25 17.5 16.25 17.5M12.5 7.5V13.75H11.25M6.25 23.75H3.75C3.08696 23.75 2.45107 23.4866 1.98223 23.0178C1.51339 22.5489 1.25 21.913 1.25 21.25V18.75M18.75 23.75H21.25C21.913 23.75 22.5489 23.4866 23.0178 23.0178C23.4866 22.5489 23.75 21.913 23.75 21.25V18.75" stroke="black" stroke-width="1.5" stroke-linecap="round" stroke-linejoin="round"/>
</svg>
