<svg width="28" height="28" viewBox="0 0 28 28" fill="none" xmlns="http://www.w3.org/2000/svg">
<path d="M9.83333 8.44444L18.1667 19.5556M18.1667 8.44444L9.83333 19.5556M14 26.5C17.3152 26.5 20.4946 25.183 22.8388 22.8388C25.183 20.4946 26.5 17.3152 26.5 14C26.5 10.6848 25.183 7.50537 22.8388 5.16116C20.4946 2.81696 17.3152 1.5 14 1.5C10.6848 1.5 7.50537 2.81696 5.16116 5.16116C2.81696 7.50537 1.5 10.6848 1.5 14C1.5 17.3152 2.81696 20.4946 5.16116 22.8388C7.50537 25.183 10.6848 26.5 14 26.5Z" stroke="#920404" stroke-width="2" stroke-linecap="round" stroke-linejoin="round"/>
</svg>
