<svg width="31" height="39" viewBox="0 0 31 39" fill="none" xmlns="http://www.w3.org/2000/svg">
<path d="M24.875 13.875V10.125C24.875 4.875 20.75 0.75 15.5 0.75C10.25 0.75 6.125 4.875 6.125 10.125V13.875C2.9375 13.875 0.5 16.3125 0.5 19.5V32.625C0.5 35.8125 2.9375 38.25 6.125 38.25H24.875C28.0625 38.25 30.5 35.8125 30.5 32.625V19.5C30.5 16.3125 28.0625 13.875 24.875 13.875ZM9.875 10.125C9.875 6.9375 12.3125 4.5 15.5 4.5C18.6875 4.5 21.125 6.9375 21.125 10.125V13.875H9.875V10.125ZM17.5625 26.0625L17.375 26.25V28.875C17.375 30 16.625 30.75 15.5 30.75C14.375 30.75 13.625 30 13.625 28.875V26.25C12.5 25.125 12.3125 23.4375 13.4375 22.3125C14.5625 21.1875 16.25 21 17.375 22.125C18.5 23.0625 18.6875 24.9375 17.5625 26.0625Z" fill="#535151"/>
</svg>
