<svg width="35" height="35" viewBox="0 0 35 35" fill="none" xmlns="http://www.w3.org/2000/svg">
<path d="M17.5 17.5C23.0234 17.5 27.5 13.583 27.5 8.75C27.5 3.91699 23.0234 0 17.5 0C11.9766 0 7.5 3.91699 7.5 8.75C7.5 13.583 11.9766 17.5 17.5 17.5ZM24.9844 19.7285L21.25 32.8125L18.75 23.5156L21.25 19.6875H13.75L16.25 23.5156L13.75 32.8125L10.0156 19.7285C4.44531 19.9609 0 23.9463 0 28.875V31.7188C0 33.5303 1.67969 35 3.75 35H31.25C33.3203 35 35 33.5303 35 31.7188V28.875C35 23.9463 30.5547 19.9609 24.9844 19.7285Z" fill="black"/>
</svg>
