<svg width="35" height="35" viewBox="0 0 35 35" fill="none" xmlns="http://www.w3.org/2000/svg">
<path d="M17.5 1.09375C16.9766 1.09375 16.6562 0.902344 16.2891 0.676758C15.7734 0.369141 15.1562 0 13.75 0C11.3672 0 9.6875 2.9873 8.59375 6.11133C4.89844 6.70605 2.5 7.66992 2.5 8.75C2.5 9.72754 4.45312 10.6025 7.54688 11.2041C7.51562 11.4775 7.5 11.751 7.5 12.0312C7.5 13.1934 7.75781 14.3008 8.22656 15.3125H3.54688C2.96875 15.3125 2.5 15.7227 2.5 16.2285C2.5 16.3447 2.52344 16.4609 2.57812 16.5703L5.60938 23.1943C2.20313 25.416 0 28.9707 0 32.9697C0 34.0908 1.03906 35 2.32031 35H32.6797C33.9609 35 35 34.0908 35 32.9697C35 28.9707 32.7969 25.4229 29.3984 23.1943L32.4219 16.5703C32.4688 16.4609 32.5 16.3447 32.5 16.2285C32.5 15.7227 32.0312 15.3125 31.4531 15.3125H26.7734C27.2422 14.3008 27.5 13.1934 27.5 12.0312C27.5 11.751 27.4844 11.4775 27.4531 11.2041C30.5469 10.6025 32.5 9.72754 32.5 8.75C32.5 7.66992 30.1016 6.70605 26.4062 6.11133C25.3125 2.9873 23.6328 0 21.25 0C19.8438 0 19.2266 0.369141 18.7109 0.676758C18.3359 0.902344 18.0234 1.09375 17.5 1.09375ZM21.875 15.3125H20.9062C19.6172 15.3125 18.4766 14.5879 18.0703 13.5215C17.8906 13.043 17.1172 13.043 16.9375 13.5215C16.5312 14.5879 15.3828 15.3125 14.1016 15.3125H13.125C11.3984 15.3125 10 14.0889 10 12.5781V11.5938C12.2031 11.874 14.7656 12.0312 17.5 12.0312C20.2344 12.0312 22.7969 11.874 25 11.5938V12.5781C25 14.0889 23.6016 15.3125 21.875 15.3125ZM15 21.875L16.25 24.0625L13.75 32.8125L10 19.6875L15 21.875ZM25 19.6875L21.25 32.8125L18.75 24.0625L20 21.875L25 19.6875Z" fill="black"/>
</svg>
