<svg width="99" height="99" viewBox="0 0 99 99" fill="none" xmlns="http://www.w3.org/2000/svg">
<path d="M43.7083 9.33329C39.4538 9.33329 35.3736 11.0234 32.3652 14.0318C29.3568 17.0402 27.6667 21.1204 27.6667 25.375C27.6667 29.6295 29.3568 33.7097 32.3652 36.7181C35.3736 39.7265 39.4538 41.4166 43.7083 41.4166C47.9628 41.4166 52.0431 39.7265 55.0515 36.7181C58.0599 33.7097 59.75 29.6295 59.75 25.375C59.75 21.1204 58.0599 17.0402 55.0515 14.0318C52.0431 11.0234 47.9628 9.33329 43.7083 9.33329ZM18.5 25.375C18.5 18.6893 21.1559 12.2775 25.8833 7.54998C30.6108 2.8225 37.0227 0.166626 43.7083 0.166626C50.394 0.166626 56.8058 2.8225 61.5333 7.54998C66.2608 12.2775 68.9167 18.6893 68.9167 25.375C68.9167 32.0606 66.2608 38.4725 61.5333 43.1999C56.8058 47.9274 50.394 50.5833 43.7083 50.5833C37.0227 50.5833 30.6108 47.9274 25.8833 43.1999C21.1559 38.4725 18.5 32.0606 18.5 25.375ZM73.5 57.4583C69.2455 57.4583 65.1652 59.1484 62.1568 62.1568C59.1484 65.1652 57.4583 69.2454 57.4583 73.5C57.4583 77.7545 59.1484 81.8347 62.1568 84.8431C65.1652 87.8515 69.2455 89.5416 73.5 89.5416C77.7545 89.5416 81.8348 87.8515 84.8432 84.8431C87.8516 81.8347 89.5417 77.7545 89.5417 73.5C89.5417 69.2454 87.8516 65.1652 84.8432 62.1568C81.8348 59.1484 77.7545 57.4583 73.5 57.4583ZM48.2917 73.5C48.2917 70.1896 48.9437 66.9116 50.2105 63.8531C51.4774 60.7947 53.3342 58.0158 55.675 55.675C58.0158 53.3342 60.7948 51.4773 63.8532 50.2105C66.9116 48.9437 70.1896 48.2916 73.5 48.2916C76.8104 48.2916 80.0884 48.9437 83.1468 50.2105C86.2052 51.4773 88.9842 53.3342 91.325 55.675C93.6658 58.0158 95.5226 60.7947 96.7895 63.8531C98.0563 66.9116 98.7083 70.1896 98.7083 73.5C98.7083 80.1856 96.0525 86.5975 91.325 91.3249C86.5975 96.0524 80.1857 98.7083 73.5 98.7083C66.8143 98.7083 60.4025 96.0524 55.675 91.3249C50.9475 86.5975 48.2917 80.1856 48.2917 73.5ZM27.6667 64.3333C22.8044 64.3333 18.1412 66.2648 14.703 69.703C11.2649 73.1412 9.33333 77.8043 9.33333 82.6666H41.6458V91.8333H0.166664V82.6666C0.166664 75.3732 3.06398 68.3784 8.22123 63.2212C13.3785 58.0639 20.3732 55.1666 27.6667 55.1666H41.4167V64.3333H27.6667ZM78.0833 63.1966V71.6025L84.5642 78.0833L78.0833 84.5641L68.9167 75.3975V63.1966H78.0833Z" fill="black"/>
</svg>
