<svg width="96" height="92" viewBox="0 0 96 92" fill="none" xmlns="http://www.w3.org/2000/svg">
<path d="M0.166687 0.166626H91.8334V41.8333H83.5V8.49996H8.50002V62.6666H50.1667V71H0.166687V0.166626ZM77.2584 56.4166C80.1334 56.4166 82.4667 58.75 82.4667 61.625V64.75H72.05V61.625C72.05 58.75 74.3834 56.4166 77.2584 56.4166ZM90.8 64.75V61.625C90.8 58.0335 89.3733 54.5891 86.8338 52.0496C84.2942 49.51 80.8498 48.0833 77.2584 48.0833C73.6669 48.0833 70.2225 49.51 67.683 52.0496C65.1434 54.5891 63.7167 58.0335 63.7167 61.625V64.75H58.5V91.8333H96V64.75H90.8ZM87.6667 73.0833V83.5H66.8334V73.0833H87.6667ZM5.37502 83.5H50.1667V91.8333H5.37502V83.5Z" fill="black"/>
</svg>
