<svg width="100" height="100" viewBox="0 0 100 100" fill="none" xmlns="http://www.w3.org/2000/svg">
<path d="M71.8 60C72.2 56.7 72.5 53.4 72.5 50C72.5 46.6 72.2 43.3 71.8 40H88.7C89.5 43.2 90 46.55 90 50C90 53.45 89.5 56.8 88.7 60M62.95 87.8C65.95 82.25 68.25 76.25 69.85 70H84.6C79.7558 78.3414 72.0706 84.66 62.95 87.8ZM61.7 60H38.3C37.8 56.7 37.5 53.4 37.5 50C37.5 46.6 37.8 43.25 38.3 40H61.7C62.15 43.25 62.5 46.6 62.5 50C62.5 53.4 62.15 56.7 61.7 60ZM50 89.8C45.85 83.8 42.5 77.15 40.45 70H59.55C57.5 77.15 54.15 83.8 50 89.8ZM30 30H15.4C20.1932 21.6352 27.8733 15.3062 37 12.2C34 17.75 31.75 23.75 30 30ZM15.4 70H30C31.75 76.25 34 82.25 37 87.8C27.8913 84.6615 20.2214 78.341 15.4 70ZM11.3 60C10.5 56.8 10 53.45 10 50C10 46.55 10.5 43.2 11.3 40H28.2C27.8 43.3 27.5 46.6 27.5 50C27.5 53.4 27.8 56.7 28.2 60M50 10.15C54.15 16.15 57.5 22.85 59.55 30H40.45C42.5 22.85 45.85 16.15 50 10.15ZM84.6 30H69.85C68.2827 23.8081 65.9656 17.8305 62.95 12.2C72.15 15.35 79.8 21.7 84.6 30ZM50 0C22.35 0 0 22.5 0 50C0 63.2608 5.26784 75.9785 14.6447 85.3553C19.2876 89.9983 24.7995 93.6812 30.8658 96.194C36.9321 98.7067 43.4339 100 50 100C63.2608 100 75.9785 94.7322 85.3553 85.3553C94.7322 75.9785 100 63.2608 100 50C100 43.4339 98.7067 36.9321 96.194 30.8658C93.6812 24.7995 89.9983 19.2876 85.3553 14.6447C80.7124 10.0017 75.2005 6.31876 69.1342 3.80602C63.0679 1.29329 56.5661 0 50 0Z" fill="black"/>
</svg>
