<svg width="88" height="100" viewBox="0 0 88 100" fill="none" xmlns="http://www.w3.org/2000/svg">
<path d="M80 8H69.655L62.83 1.17C62.4583 0.798664 62.017 0.504208 61.5314 0.303456C61.0458 0.102703 60.5254 -0.000411943 60 1.23679e-06H28C27.4746 -0.000411943 26.9542 0.102703 26.4686 0.303456C25.983 0.504208 25.5417 0.798664 25.17 1.17L18.345 8H8C5.87827 8 3.84344 8.84286 2.34315 10.3431C0.842854 11.8434 0 13.8783 0 16V92C0 94.1217 0.842854 96.1566 2.34315 97.6569C3.84344 99.1571 5.87827 100 8 100H80C82.1217 100 84.1566 99.1571 85.6569 97.6569C87.1571 96.1566 88 94.1217 88 92V16C88 13.8783 87.1571 11.8434 85.6569 10.3431C84.1566 8.84286 82.1217 8 80 8ZM44 20.79L35.5 8H52.55L44 20.79ZM60.62 10.29L64 13.655V40L49.285 27.28L60.62 10.29ZM24 13.655L27.38 10.28L38.715 27.28L24 40V13.655ZM8 16H16V40C15.9906 41.5224 16.4199 43.0152 17.2366 44.3C18.0532 45.5849 19.2226 46.6073 20.605 47.245C21.6681 47.741 22.8268 47.9987 24 48C25.8662 47.9962 27.6716 47.336 29.1 46.135C29.1207 46.1212 29.1393 46.1043 29.155 46.085L40 36.74V92H8V16ZM80 92H48V36.74L58.825 46.09C58.8407 46.1093 58.8593 46.1262 58.88 46.14C60.3144 47.3436 62.1275 48.0023 64 48C65.181 47.997 66.3469 47.7341 67.415 47.23C68.7913 46.5904 69.955 45.5691 70.7678 44.2874C71.5806 43.0057 72.0083 41.5176 72 40V16H80V92Z" fill="black"/>
</svg>
