<svg width="110" height="93" viewBox="0 0 110 93" fill="none" xmlns="http://www.w3.org/2000/svg">
<path d="M82.0834 0.666627C84.8165 0.665762 87.4489 1.69799 89.453 3.5564C91.457 5.41481 92.6846 7.96204 92.8896 10.6875L92.9167 11.5V22.3333H98.3334C101.066 22.3324 103.699 23.3647 105.703 25.2231C107.707 27.0815 108.935 29.6287 109.14 32.3541L109.167 33.1666V81.9166C109.168 84.6497 108.135 87.2822 106.277 89.2863C104.419 91.2903 101.871 92.5179 99.1458 92.7229L98.3334 92.75H76.6667C74.9108 92.7496 73.1814 92.3224 71.6273 91.5053C70.0732 90.6881 68.741 89.5055 67.7454 88.0591L67.285 87.3333H11.6667C8.93356 87.3342 6.30111 86.3019 4.29704 84.4435C2.29298 82.5851 1.06541 80.0379 0.860428 77.3125L0.833344 76.5V11.5C0.832479 8.76684 1.86471 6.13439 3.72312 4.13033C5.58153 2.12626 8.12875 0.898695 10.8542 0.69371L11.6667 0.666627H82.0834ZM98.3334 33.1666H76.6667V81.9166H98.3334V33.1666ZM82.0834 11.5H11.6667V76.5H65.8333V33.1666C65.8333 30.2934 66.9747 27.538 69.0064 25.5063C71.038 23.4747 73.7935 22.3333 76.6667 22.3333H82.0834V11.5Z" fill="black"/>
</svg>
