<svg width="90" height="90" viewBox="0 0 90 90" fill="none" xmlns="http://www.w3.org/2000/svg">
<path d="M0 18.75C0 13.7772 1.97544 9.00805 5.49175 5.49175C9.00805 1.97544 13.7772 0 18.75 0H71.25C76.2228 0 80.9919 1.97544 84.5083 5.49175C88.0246 9.00805 90 13.7772 90 18.75V71.25C90 76.2228 88.0246 80.9919 84.5083 84.5083C80.9919 88.0246 76.2228 90 71.25 90H18.75C13.7772 90 9.00805 88.0246 5.49175 84.5083C1.97544 80.9919 0 76.2228 0 71.25V18.75ZM18.75 7.5C15.7663 7.5 12.9048 8.68526 10.795 10.795C8.68526 12.9048 7.5 15.7663 7.5 18.75V71.25C7.5 74.2337 8.68526 77.0952 10.795 79.205C12.9048 81.3147 15.7663 82.5 18.75 82.5H71.25C74.2337 82.5 77.0952 81.3147 79.205 79.205C81.3147 77.0952 82.5 74.2337 82.5 71.25V18.75C82.5 15.7663 81.3147 12.9048 79.205 10.795C77.0952 8.68526 74.2337 7.5 71.25 7.5H18.75ZM16.875 63.75C16.875 62.7554 17.2701 61.8016 17.9734 61.0983C18.6766 60.3951 19.6304 60 20.625 60H37.5C38.4946 60 39.4484 60.3951 40.1516 61.0983C40.8549 61.8016 41.25 62.7554 41.25 63.75C41.25 64.7446 40.8549 65.6984 40.1516 66.4017C39.4484 67.1049 38.4946 67.5 37.5 67.5H20.625C19.6304 67.5 18.6766 67.1049 17.9734 66.4017C17.2701 65.6984 16.875 64.7446 16.875 63.75ZM20.625 30C19.6304 30 18.6766 30.3951 17.9734 31.0984C17.2701 31.8016 16.875 32.7554 16.875 33.75C16.875 34.7446 17.2701 35.6984 17.9734 36.4016C18.6766 37.1049 19.6304 37.5 20.625 37.5H37.5C38.4946 37.5 39.4484 37.1049 40.1516 36.4016C40.8549 35.6984 41.25 34.7446 41.25 33.75C41.25 32.7554 40.8549 31.8016 40.1516 31.0984C39.4484 30.3951 38.4946 30 37.5 30H20.625ZM72.015 53.595C72.3642 53.9433 72.6413 54.3572 72.8303 54.8128C73.0194 55.2683 73.1167 55.7567 73.1167 56.25C73.1167 56.7433 73.0194 57.2317 72.8303 57.6872C72.6413 58.1428 72.3642 58.5567 72.015 58.905L60.765 70.155C60.4167 70.5042 60.0028 70.7813 59.5472 70.9703C59.0917 71.1594 58.6033 71.2567 58.11 71.2567C57.6167 71.2567 57.1283 71.1594 56.6727 70.9703C56.2172 70.7813 55.8033 70.5042 55.455 70.155L49.845 64.545C49.1409 63.8409 48.7453 62.8858 48.7453 61.89C48.7453 60.8942 49.1409 59.9391 49.845 59.235C50.5491 58.5308 51.5042 58.1353 52.5 58.1353C53.4958 58.1353 54.4509 58.5308 55.155 59.235L58.11 62.1975L66.7125 53.595C67.4157 52.892 68.3694 52.4971 69.3637 52.4971C70.3581 52.4971 71.3118 52.892 72.015 53.595ZM72.015 28.905C72.3637 28.5568 72.6403 28.1434 72.8292 27.6883C73.0181 27.2332 73.1155 26.7454 73.1158 26.2526C73.1162 25.7599 73.0195 25.2719 72.8312 24.8166C72.643 24.3612 72.3669 23.9474 72.0188 23.5988C71.6706 23.2501 71.2572 22.9734 70.8021 22.7845C70.347 22.5957 69.8591 22.4983 69.3664 22.4979C68.8737 22.4976 68.3857 22.5943 67.9303 22.7825C67.475 22.9708 67.0612 23.2468 66.7125 23.595L58.11 32.1975L55.155 29.235C54.8063 28.8863 54.3924 28.6098 53.9369 28.4211C53.4813 28.2324 52.9931 28.1353 52.5 28.1353C52.0069 28.1353 51.5187 28.2324 51.0631 28.4211C50.6076 28.6098 50.1937 28.8863 49.845 29.235C49.4963 29.5837 49.2198 29.9976 49.0311 30.4531C48.8424 30.9087 48.7453 31.3969 48.7453 31.89C48.7453 32.3831 48.8424 32.8713 49.0311 33.3269C49.2198 33.7824 49.4963 34.1963 49.845 34.545L55.455 40.155C55.8033 40.5042 56.2172 40.7813 56.6727 40.9703C57.1283 41.1594 57.6167 41.2567 58.11 41.2567C58.6033 41.2567 59.0917 41.1594 59.5472 40.9703C60.0028 40.7813 60.4167 40.5042 60.765 40.155L72.015 28.905Z" fill="black"/>
</svg>
