<svg width="107" height="113" viewBox="0 0 107 113" fill="none" xmlns="http://www.w3.org/2000/svg">
<path fill-rule="evenodd" clip-rule="evenodd" d="M91.3313 88.0812C92.4535 86.9484 93.9661 86.2873 95.5597 86.2332C97.1534 86.1791 98.7074 86.7362 99.9037 87.7904C101.1 88.8446 101.848 90.3161 101.995 91.9039C102.142 93.4916 101.676 95.0755 100.694 96.3312L100.169 96.9187L90.7938 106.294C88.9829 108.106 86.8326 109.544 84.4658 110.525C82.099 111.505 79.5621 112.01 77.0001 112.01C74.4381 112.01 71.9012 111.505 69.5344 110.525C67.1676 109.544 65.0173 108.106 63.2063 106.294C61.9929 105.078 60.3748 104.35 58.6599 104.25C56.945 104.15 55.2531 104.684 53.9063 105.75L53.2938 106.294L50.1688 109.419C49.0441 110.54 47.5349 111.19 45.9477 111.239C44.3605 111.287 42.8144 110.73 41.6233 109.68C40.4323 108.629 39.6857 107.165 39.5351 105.585C39.3845 104.004 39.8412 102.425 40.8126 101.169L41.3313 100.581L44.4563 97.4562C46.2673 95.6439 48.4176 94.2063 50.7844 93.2254C53.1512 92.2445 55.6881 91.7396 58.2501 91.7396C60.8121 91.7396 63.349 92.2445 65.7158 93.2254C68.0826 94.2063 70.2329 95.6439 72.0438 97.4562C73.2572 98.6722 74.8754 99.3995 76.5902 99.4998C78.3051 99.6001 79.997 99.0662 81.3438 98L81.9563 97.4562L91.3313 88.0812ZM80.0188 4.89373C82.8811 2.03311 86.7417 0.394568 90.7878 0.323003C94.8338 0.251438 98.7499 1.75244 101.712 4.51004C104.673 7.26764 106.45 11.0667 106.667 15.1076C106.884 19.1486 105.524 23.116 102.875 26.175L102.113 26.9937L29.7688 99.3375C28.8672 100.239 27.7911 100.947 26.6063 101.419L25.7001 101.731L7.96882 106.775C6.95241 107.066 5.87876 107.095 4.84834 106.858C3.81792 106.621 2.86441 106.127 2.07702 105.421C1.28963 104.716 0.694112 103.822 0.346176 102.823C-0.00175962 101.825 -0.0907366 100.755 0.0875712 99.7125L0.237571 99.0437L5.28132 81.3062C5.63039 80.0801 6.22586 78.9381 7.03132 77.95L7.66882 77.2437L80.0188 4.89373ZM93.2688 13.7375C92.7521 13.2214 92.071 12.9025 91.3438 12.8363C90.6165 12.7701 89.889 12.9607 89.2876 13.375L88.8501 13.7375L17.0876 85.5L15.3376 91.675L21.5063 89.925L93.2751 18.15C93.8609 17.564 94.19 16.7692 94.19 15.9406C94.19 15.112 93.8609 14.3173 93.2751 13.7312" fill="white"/>
</svg>
