<svg width="132" height="132" viewBox="0 0 132 132" fill="none" xmlns="http://www.w3.org/2000/svg">
<path d="M130.219 15.8438L116.156 1.78125L112.875 0.375H33L28.3125 5.0625V28.5H5.0625L0.375 33.1875V126.938L5.0625 131.625H98.8125L103.5 126.938V103.5H126.938L131.625 98.8125V19.125L130.219 15.8438ZM94.125 122.25H9.75V37.875H19.125V66.6562H75.375V37.875H82.7812L94.125 49.2188V122.25ZM47.25 56.625V37.875H66V56.625H47.25ZM122.25 94.125H103.5V47.25L102.094 43.9688L88.0312 29.9062L84.75 28.5H37.875V9.75H111.094L122.438 21.0938L122.25 94.125Z" fill="#FFFCF4"/>
</svg>
