<svg width="127" height="126" viewBox="0 0 127 126" fill="none" xmlns="http://www.w3.org/2000/svg">
<path d="M113.25 30.2313L100.75 42.7313V13H44.4999V44.25H13.2499V113H100.75V95.7688L113.25 83.2688V119.3C113.248 120.945 112.594 122.522 111.43 123.684C110.266 124.847 108.689 125.5 107.044 125.5H6.95616C6.13539 125.494 5.32379 125.327 4.56769 125.008C3.8116 124.688 3.12582 124.223 2.54951 123.639C1.9732 123.054 1.51766 122.362 1.20888 121.601C0.900103 120.841 0.744145 120.027 0.74991 119.206V38L38.2687 0.5H106.987C110.437 0.5 113.25 3.34375 113.25 6.7V30.2313ZM118.112 43.0438L126.95 51.8875L78.3374 100.5L69.4874 100.487L69.4999 91.6625L118.112 43.0438Z" fill="#FFFCF4"/>
</svg>
