<svg width="34" height="27" viewBox="0 0 34 27" fill="none" xmlns="http://www.w3.org/2000/svg">
<path d="M1.66667 23.3333H31.6667C32.1087 23.3333 32.5326 23.5089 32.8452 23.8215C33.1577 24.134 33.3333 24.558 33.3333 25C33.3333 25.442 33.1577 25.8659 32.8452 26.1785C32.5326 26.4911 32.1087 26.6667 31.6667 26.6667H1.66667C1.22464 26.6667 0.800716 26.4911 0.488155 26.1785C0.175595 25.8659 0 25.442 0 25C0 24.558 0.175595 24.134 0.488155 23.8215C0.800716 23.5089 1.22464 23.3333 1.66667 23.3333ZM3.33333 0H30C30.8841 0 31.7319 0.35119 32.357 0.976311C32.9821 1.60143 33.3333 2.44928 33.3333 3.33333V20C33.3333 20.442 33.1577 20.8659 32.8452 21.1785C32.5326 21.4911 32.1087 21.6667 31.6667 21.6667H1.66667C1.22464 21.6667 0.800716 21.4911 0.488155 21.1785C0.175595 20.8659 0 20.442 0 20V3.33333C0 2.44928 0.35119 1.60143 0.976311 0.976311C1.60143 0.35119 2.44928 0 3.33333 0ZM30 18.3333V3.33333H3.33333V18.3333H30Z" fill="#332E2E"/>
</svg>
