<svg width="41" height="41" viewBox="0 0 41 41" fill="none" xmlns="http://www.w3.org/2000/svg">
<path fill-rule="evenodd" clip-rule="evenodd" d="M25.6882 0H27.7507C28.9957 0 30.0701 6.98492e-08 30.9307 0.11625C31.8532 0.24 32.7363 0.519375 33.4526 1.23563C33.8951 1.67813 34.1707 2.1825 34.3451 2.72062L35.7701 2.12812L35.847 2.09625C36.3663 1.87875 36.8913 1.65938 37.3394 1.54688C37.8363 1.42125 38.5713 1.335 39.2707 1.8C39.9682 2.265 40.1707 2.9775 40.2457 3.48563C40.3132 3.94313 40.3132 4.50938 40.3132 5.07375V8.98875C40.3132 9.55125 40.3132 10.1213 40.2457 10.5788C40.1707 11.085 39.9682 11.7975 39.2707 12.2625C38.5713 12.7275 37.8363 12.6413 37.3394 12.5156C36.83 12.3668 36.3313 12.1832 35.847 11.9662C35.8207 11.9572 35.795 11.9466 35.7701 11.9344L34.3451 11.3419C34.1707 11.88 33.8951 12.3844 33.4526 12.8269C32.7363 13.5431 31.8513 13.8225 30.9307 13.9462C30.0701 14.0625 28.9957 14.0625 27.7488 14.0625H25.6901C24.4432 14.0625 23.3688 14.0625 22.5082 13.9462C21.5857 13.8225 20.7026 13.5431 19.9863 12.8269C19.2701 12.1106 18.9907 11.2256 18.867 10.305C18.7507 9.44438 18.7507 8.37 18.7507 7.12312V6.93938C18.7507 5.6925 18.7507 4.61812 18.867 3.7575C18.9907 2.83687 19.2701 1.95188 19.9863 1.23563C20.7026 0.519375 21.5857 0.24 22.5082 0.11625C23.3688 6.98492e-08 24.4432 0 25.6901 0M34.6901 8.4375L36.8538 9.3375C37.1069 9.44438 37.3169 9.53063 37.4988 9.60375C37.5026 9.40688 37.5026 9.18 37.5026 8.90625V5.15625C37.5026 4.8825 37.5026 4.65562 37.4988 4.45875C37.3151 4.53188 37.1051 4.61812 36.8538 4.72312L34.6901 5.625V7.2825V8.4375ZM31.8757 7.03125C31.8757 5.66625 31.8719 4.78125 31.7857 4.1325C31.7032 3.52312 31.5701 3.33188 31.4632 3.225C31.3563 3.11812 31.1651 2.985 30.5557 2.9025C29.9051 2.81625 29.0219 2.8125 27.6569 2.8125H25.7819C24.417 2.8125 23.5319 2.81625 22.8832 2.9025C22.2738 2.985 22.0826 3.11812 21.9757 3.225C21.8688 3.33188 21.7357 3.52312 21.6532 4.1325C21.5669 4.78312 21.5632 5.66625 21.5632 7.03125C21.5632 8.39625 21.5669 9.28125 21.6532 9.93C21.7357 10.5394 21.8688 10.7306 21.9757 10.8375C22.0826 10.9444 22.2738 11.0775 22.8832 11.16C23.5338 11.2463 24.417 11.25 25.7819 11.25H27.6569C29.0219 11.25 29.9069 11.2463 30.5557 11.16C31.1651 11.0775 31.3563 10.9444 31.4632 10.8375C31.5701 10.7306 31.7032 10.5394 31.7857 9.93C31.8719 9.27938 31.8757 8.39625 31.8757 7.03125ZM15.3776 0H15.4694C15.8424 0 16.2001 0.148158 16.4638 0.411881C16.7275 0.675604 16.8757 1.03329 16.8757 1.40625C16.8757 1.77921 16.7275 2.1369 16.4638 2.40062C16.2001 2.66434 15.8424 2.8125 15.4694 2.8125C12.3532 2.8125 10.1388 2.81438 8.44007 3.015C6.7732 3.21187 5.78695 3.585 5.0407 4.19625C4.73252 4.44922 4.44992 4.73182 4.19695 5.04C3.5857 5.78625 3.21257 6.7725 3.0157 8.43937C2.81507 10.1381 2.8132 12.3525 2.8132 15.4688V18.2812C2.8132 19.1419 2.8132 19.92 2.8207 20.625H37.4932C37.5007 19.92 37.5007 19.1419 37.5007 18.2812V16.4062C37.5007 16.0333 37.6489 15.6756 37.9126 15.4119C38.1763 15.1482 38.534 15 38.9069 15C39.2799 15 39.6376 15.1482 39.9013 15.4119C40.165 15.6756 40.3132 16.0333 40.3132 16.4062V18.3844C40.3132 19.6256 40.3132 20.7525 40.2888 21.7669C40.3277 21.9701 40.3213 22.1795 40.2701 22.38C40.2382 23.2125 40.1857 23.9644 40.0957 24.6413C39.867 26.3288 39.3832 27.75 38.2544 28.8787C37.1257 30.0075 35.7044 30.4913 34.0169 30.72C32.3913 30.9375 30.3232 30.9375 27.7601 30.9375H21.5632V37.5H27.6569C28.0299 37.5 28.3876 37.6482 28.6513 37.9119C28.915 38.1756 29.0632 38.5333 29.0632 38.9062C29.0632 39.2792 28.915 39.6369 28.6513 39.9006C28.3876 40.1643 28.0299 40.3125 27.6569 40.3125H12.6569C12.284 40.3125 11.9263 40.1643 11.6626 39.9006C11.3989 39.6369 11.2507 39.2792 11.2507 38.9062C11.2507 38.5333 11.3989 38.1756 11.6626 37.9119C11.9263 37.6482 12.284 37.5 12.6569 37.5H18.7507V30.9375H12.5538C9.9907 30.9375 7.92257 30.9375 6.29695 30.72C4.60945 30.4913 3.1882 30.0075 2.05945 28.8787C0.9307 27.75 0.44695 26.3288 0.220075 24.6413C0.1282 23.9662 0.0757001 23.2125 0.0438251 22.38C-0.0074051 22.1795 -0.013807 21.9701 0.0250751 21.7669C0.000700086 20.7525 0.000700065 19.6256 0.000700065 18.3844V15.375C0.000700065 12.3712 0.000699987 9.99 0.223825 8.1075C0.452575 6.17625 0.9307 4.5825 2.02382 3.255C2.39361 2.80371 2.80685 2.38984 3.25757 2.01937C4.58695 0.928125 6.17695 0.45 8.11007 0.219375C9.99445 -2.79397e-08 12.3757 0 15.3776 0ZM2.92007 23.4375C2.94257 23.73 2.97257 24.0056 3.00632 24.2663C3.19195 25.6425 3.53132 26.37 4.04882 26.8894C4.5682 27.4087 5.2957 27.7462 6.67382 27.9319C8.08757 28.1212 9.96632 28.125 12.6569 28.125H27.6569C30.3476 28.125 32.2244 28.1212 33.6419 27.9319C35.0182 27.7462 35.7457 27.4069 36.2651 26.8894C36.7844 26.37 37.1219 25.6425 37.3076 24.2644C37.3432 24.0056 37.3713 23.73 37.3938 23.4375H2.92007Z" fill="black"/>
</svg>
